<svg width="24" height="24" viewBox="0 0 24 24" fill="none" xmlns="http://www.w3.org/2000/svg">
<g clip-path="url(#clip0_8971_37415)">
<path d="M12 24C18.6274 24 24 18.6274 24 12C24 5.37258 18.6274 0 12 0C5.37258 0 0 5.37258 0 12C0 18.6274 5.37258 24 12 24Z" fill="#080404"/>
<path d="M6 14.6406V15.5345H7.42858V14.6406H6Z" fill="#FF8700"/>
<path d="M10.1426 14.6406V15.5345H11.5712V14.6406H10.1426Z" fill="#FF8700"/>
<path d="M7.42858 15.832H6V16.5769H7.42858V15.832Z" fill="#FF8700"/>
<path d="M13.8572 8.68138V7.93652H12.4287V8.68138H13.8572Z" fill="#FF8700"/>
<path d="M7.4983 11.7995V7.125H9.94402L10.2126 7.42294V7.99596H11.5712V7.125L11.2355 6.74512H6.14258V11.7995H7.4983Z" fill="#FF8700"/>
<path d="M13.8572 8.97949H12.4287V9.87332H13.8572V8.97949Z" fill="#FF8700"/>
<path d="M10.1426 15.832V16.5769H11.5712V15.832H10.1426Z" fill="#FF8700"/>
<path d="M16.6087 14.6406V14.7628L16.323 15.0712H13.823V14.6406H12.4287V15.5345L17.2233 15.8978L18.0001 15.0712V14.6406H16.6087Z" fill="#FF8700"/>
<path d="M12.4287 13.6572V14.3425H13.823V13.9135H16.3287L16.6144 14.1682V14.9065H18.0001V13.9135L17.6601 13.5977H12.4287V13.6572Z" fill="#FF8700"/>
<path d="M10.9373 8.89739L11.5712 8.29555V7.93652H10.2126V8.03931L9.94402 8.29555H7.4983V7.93652H6.14258V8.94204L10.9373 8.89739Z" fill="#FF8700"/>
<path d="M17.9912 13.8979L16.913 12.7041H12.4287V13.6836L17.9912 13.8979Z" fill="#FF8700"/>
<path d="M12.4287 16.2316V16.5772H13.823V16.2316H16.3287L16.6144 16.4878V18.5138H18.0001V16.2316L17.268 15.5763L12.4287 15.4424V16.2316Z" fill="#FF8700"/>
<path d="M7.4983 9.87263V9.45699H9.94402L10.2126 9.76537V9.87263H11.5712V9.45699L10.8301 8.62012L6.14258 8.9788V9.87263H7.4983Z" fill="#FF8700"/>
<path d="M11.2541 10.916L11.5712 10.6181V9.83496H10.2126V10.3559L9.94402 10.6181H7.4983V10.1712H6.14258V10.916H11.2541Z" fill="#FF8700"/>
<path d="M10.1426 13.5977V14.3425H11.5712V13.5977H10.1426Z" fill="#FF8700"/>
<path d="M6.14258 10.6925V11.8102H10.4855L11.5712 10.6211L6.14258 10.6925Z" fill="#FF8700"/>
<path d="M12.4463 10.6113L13.527 11.8094H17.4284V10.6113H12.4463Z" fill="#FF8700"/>
<path d="M13.8572 6H12.4287V10.5136H13.8572V6Z" fill="#FF8700"/>
<path d="M11.5712 7.11182L10.5444 6H6.14258V7.11182H11.5712Z" fill="#FF8700"/>
<path d="M6.57129 18.0664L7.10272 18.5133H10.4685L10.9999 18.0664H6.57129Z" fill="#FF8700"/>
<path d="M13.8572 12.96H12.4287V18.5135H13.8572V12.96Z" fill="#FF8700"/>
<path d="M6 13.9135V14.3425H7.42858V13.5977H6V13.9135Z" fill="#FF8700"/>
<path d="M17.4287 10.618H14.373L13.6787 9.96875L12.4287 10.171V10.618L12.7572 10.9159H17.4287V10.618Z" fill="#FF8700"/>
<path d="M12.4287 7.125V7.63895H13.8572V6.74512H12.4287V7.125Z" fill="#FF8700"/>
<path d="M11.5714 17.4051V16.8747L10.2143 16.7188L9.62144 17.4051H7.95001L7.25893 16.6562L6 16.8747V17.4051L6.94643 18.5223H10.6518L11.5714 17.4051Z" fill="#FF8700"/>
<path d="M11.5712 12.7041H10.1426V16.9782H11.5712V12.7041Z" fill="#FF8700"/>
<path d="M13.8572 16.875H12.4287V17.7688H13.8572V16.875Z" fill="#FF8700"/>
<path d="M7.42858 12.7041H6V16.9782H7.42858V12.7041Z" fill="#FF8700"/>
</g>
<defs>
<clipPath id="clip0_8971_37415">
<rect width="24" height="24" fill="white"/>
</clipPath>
</defs>
</svg>
