<svg width="24" height="24" viewBox="0 0 24 24" fill="none" xmlns="http://www.w3.org/2000/svg">
<g clip-path="url(#clip0_8971_37472)">
<path d="M12 24C18.6274 24 24 18.6274 24 12C24 5.37258 18.6274 0 12 0C5.37258 0 0 5.37258 0 12C0 18.6274 5.37258 24 12 24Z" fill="#F4F4F4"/>
<path d="M14.1141 17.1631H12.4854V17.6567H14.1141V17.1631Z" fill="#D0D0D0"/>
<path d="M14.1141 16.4727H12.4854V16.9861H14.1141V16.4727Z" fill="#D0D0D0"/>
<path d="M14.1141 13.7866H12.4854V14.2803H14.1141V13.7866Z" fill="#D0D0D0"/>
<path d="M14.1141 14.4585H12.4854V14.9521H14.1141V14.4585Z" fill="#D0D0D0"/>
<path d="M18.1861 12.9182L17.6899 12.4048H12.4854V12.9182H18.1861Z" fill="#D0D0D0"/>
<path d="M12.4854 13.0957V13.5894H18.8647L18.3635 13.0957H12.4854Z" fill="#D0D0D0"/>
<path d="M17.3677 14.4585V14.7271L17.1387 14.9521H19.0001V14.4585H17.3677Z" fill="#D0D0D0"/>
<path d="M12.4854 15.1299V15.6433H18.4221L18.9229 15.1299H12.4854Z" fill="#D0D0D0"/>
<path d="M17.0605 13.7866L17.3556 14.0741V14.2803H18.9996V13.7866H17.0605Z" fill="#D0D0D0"/>
<path d="M12.4854 15.8013V16.3147H18.9229L18.423 15.8013H12.4854Z" fill="#D0D0D0"/>
<path d="M18.9997 18.5063H17.3516V19H18.9997V18.5063Z" fill="#D0D0D0"/>
<path d="M14.1141 18.5063H12.4854V19H14.1141V18.5063Z" fill="#D0D0D0"/>
<path d="M17.1387 16.4727L17.3569 16.6942V16.9861H19.0001V16.4727H17.1387Z" fill="#D0D0D0"/>
<path d="M14.1141 17.8354H12.4854V18.3488H14.1141V17.8354Z" fill="#D0D0D0"/>
<path d="M18.9997 17.1631H17.3516V17.6567H18.9997V17.1631Z" fill="#D0D0D0"/>
<path d="M18.9997 17.8354H17.3516V18.3488H18.9997V17.8354Z" fill="#D0D0D0"/>
<path d="M14.2354 9.71875H12.4854V10.2322H14.7346L14.2354 9.71875Z" fill="#D0D0D0"/>
<path d="M14.1141 8.37695H12.4854V8.89035H14.1141V8.37695Z" fill="#D0D0D0"/>
<path d="M14.1141 6.34277H12.4854V6.85617H14.1141V6.34277Z" fill="#D0D0D0"/>
<path d="M14.1141 7.70508H12.4854V8.21848H14.1141V7.70508Z" fill="#D0D0D0"/>
<path d="M14.1141 7.03418H12.4854V7.52783H14.1141V7.03418Z" fill="#D0D0D0"/>
<path d="M14.1141 9.04785H12.4854V9.56125H14.1141V9.04785Z" fill="#D0D0D0"/>
<path d="M14.1141 5H12.4854V5.49365H14.1141V5Z" fill="#D0D0D0"/>
<path d="M13.2988 11.1016L13.7836 11.5755H18.9801V11.1016H13.2988Z" fill="#D0D0D0"/>
<path d="M14.1141 5.6709H12.4854V6.16455H14.1141V5.6709Z" fill="#D0D0D0"/>
<path d="M18.9802 10.4102H12.6396L13.1395 10.9038H18.9802V10.4102Z" fill="#D0D0D0"/>
<path d="M9.87025 9.26941V9.56125H11.4964V9.04785H9.6543L9.87025 9.26941Z" fill="#D0D0D0"/>
<path d="M9.86692 6.64174V6.85617H11.4948V6.34277H9.5752L9.86692 6.64174Z" fill="#D0D0D0"/>
<path d="M11.4952 7.52783V7.03418H9.86277V7.30282L9.63379 7.52783H11.4952Z" fill="#D0D0D0"/>
<path d="M11.4948 10.2322V9.71875H9.87717V9.921L9.5752 10.2322H11.4948Z" fill="#D0D0D0"/>
<path d="M10.7007 5.49365L10.2041 5H5V5.49365H10.7007Z" fill="#D0D0D0"/>
<path d="M5 11.1016V11.5755H10.2152L10.7007 11.1016H5Z" fill="#D0D0D0"/>
<path d="M6.62877 6.34277H5V6.85617H6.62877V6.34277Z" fill="#D0D0D0"/>
<path d="M10.9367 8.21848L11.4375 7.70508H5V8.21848H10.9367Z" fill="#D0D0D0"/>
<path d="M11.4375 8.89035L10.9376 8.37695H5V8.89035H11.4375Z" fill="#D0D0D0"/>
<path d="M6.62877 9.04785H5V9.56125H6.62877V9.04785Z" fill="#D0D0D0"/>
<path d="M5 6.16455H11.3794L10.8781 5.6709H5V6.16455Z" fill="#D0D0D0"/>
<path d="M6.62877 7.03418H5V7.52783H6.62877V7.03418Z" fill="#D0D0D0"/>
<path d="M6.62877 9.71875H5V10.2322H6.62877V9.71875Z" fill="#D0D0D0"/>
<path d="M10.8593 10.9038L11.36 10.4102H5V10.9038H10.8593Z" fill="#D0D0D0"/>
<path d="M6.75 17.1631H5V17.6567H7.24926L6.75 17.1631Z" fill="#D0D0D0"/>
<path d="M11.4961 13.0957H9.88672V13.5894H11.4961V13.0957Z" fill="#D0D0D0"/>
<path d="M11.4961 14.4585H9.88672V14.9521H11.4961V14.4585Z" fill="#D0D0D0"/>
<path d="M11.4961 15.1299H9.88672V15.6433H11.4961V15.1299Z" fill="#D0D0D0"/>
<path d="M11.4961 15.8013H9.88672V16.3147H11.4961V15.8013Z" fill="#D0D0D0"/>
<path d="M9.74569 17.1631L9.24609 17.6567H11.4953V17.1631H9.74569Z" fill="#D0D0D0"/>
<path d="M6.62877 13.7866H5V14.2803H6.62877V13.7866Z" fill="#D0D0D0"/>
<path d="M6.62877 13.0957H5V13.5894H6.62877V13.0957Z" fill="#D0D0D0"/>
<path d="M11.4961 13.7866H9.88672V14.2803H11.4961V13.7866Z" fill="#D0D0D0"/>
<path d="M6.62877 16.4727H5V16.9861H6.62877V16.4727Z" fill="#D0D0D0"/>
<path d="M6.62877 15.8013H5V16.3147H6.62877V15.8013Z" fill="#D0D0D0"/>
<path d="M6.62877 15.1299H5V15.6433H6.62877V15.1299Z" fill="#D0D0D0"/>
<path d="M11.4961 16.4727H9.88672V16.9861H11.4961V16.4727Z" fill="#D0D0D0"/>
<path d="M6.62877 14.4585H5V14.9521H6.62877V14.4585Z" fill="#D0D0D0"/>
<path d="M11.4961 12.4048H9.88672V12.9182H11.4961V12.4048Z" fill="#D0D0D0"/>
<path d="M6.62877 12.4048H5V12.9182H6.62877V12.4048Z" fill="#D0D0D0"/>
<path d="M5.81445 18.5063L6.30073 19H10.2149L10.7008 18.5063H5.81445Z" fill="#D0D0D0"/>
<path d="M11.3601 17.8354H5.15527L5.65527 18.3488H10.8601L11.3601 17.8354Z" fill="#D0D0D0"/>
</g>
<defs>
<clipPath id="clip0_8971_37472">
<rect width="24" height="24" fill="white"/>
</clipPath>
</defs>
</svg>
