<svg width="16" height="1358" fill="none" xmlns="http://www.w3.org/2000/svg"><path d="M9 1a1 1 0 0 0-2 0h2ZM7.293 1357.71c.39.39 1.024.39 1.414 0l6.364-6.37a.995.995 0 0 0 0-1.41 1 1 0 0 0-1.414 0L8 1355.59l-5.657-5.66a1.001 1.001 0 0 0-1.414 0 .995.995 0 0 0 0 1.41l6.364 6.37ZM7 4.988a1 1 0 0 0 2 0H7Zm2 11.965a1 1 0 0 0-2 0h2Zm-2 7.976a1 1 0 1 0 2 0H7Zm2 11.965a1 1 0 1 0-2 0h2Zm-2 7.977a1 1 0 1 0 2 0H7Zm2 11.964a1 1 0 1 0-2 0h2Zm-2 7.977a1 1 0 1 0 2 0H7Zm2 11.965a1 1 0 1 0-2 0h2Zm-2 7.976a1 1 0 1 0 2 0H7Zm2 11.965a1 1 0 0 0-2 0h2Zm-2 7.976a1 1 0 0 0 2 0H7Zm2 11.965a1 1 0 0 0-2 0h2Zm-2 7.976a1 1 0 1 0 2 0H7ZM9 136.6a1 1 0 0 0-2 0h2Zm-2 7.976a1 1 0 1 0 2 0H7Zm2 11.965a1 1 0 0 0-2 0h2Zm-2 7.977a1 1 0 0 0 2 0H7Zm2 11.964a1 1 0 0 0-2 0h2Zm-2 7.977a1 1 0 0 0 2 0H7Zm2 11.965a1 1 0 1 0-2 0h2ZM7 204.4a1 1 0 0 0 2 0H7Zm2 11.965a1 1 0 1 0-2 0h2Zm-2 7.976a1 1 0 0 0 2 0H7Zm2 11.965a1 1 0 0 0-2 0h2Zm-2 7.976a1 1 0 1 0 2 0H7Zm2 11.965a1 1 0 0 0-2 0h2Zm-2 7.977a1 1 0 0 0 2 0H7Zm2 11.964a1 1 0 0 0-2 0h2Zm-2 7.977a1 1 0 0 0 2 0H7Zm2 11.964a1 1 0 0 0-2 0h2Zm-2 7.977a1 1 0 0 0 2 0H7Zm2 11.965a1 1 0 1 0-2 0h2Zm-2 7.976a1 1 0 0 0 2 0H7Zm2 11.965a1 1 0 1 0-2 0h2Zm-2 7.976a1 1 0 0 0 2 0H7Zm2 11.965a1 1 0 0 0-2 0h2Zm-2 7.976a1 1 0 1 0 2 0H7Zm2 11.965a1 1 0 0 0-2 0h2Zm-2 7.976a1 1 0 1 0 2 0H7Zm2 11.965a1 1 0 0 0-2 0h2Zm-2 7.977a1 1 0 0 0 2 0H7Zm2 11.964a1 1 0 0 0-2 0h2Zm-2 7.977a1 1 0 0 0 2 0H7Zm2 11.964a1 1 0 0 0-2 0h2Zm-2 7.977a1 1 0 0 0 2 0H7Zm2 11.965a1 1 0 1 0-2 0h2Zm-2 7.976a1 1 0 0 0 2 0H7ZM9 475.6a1 1 0 0 0-2 0h2Zm-2 7.976a1 1 0 1 0 2 0H7Zm2 11.965a1 1 0 0 0-2 0h2Zm-2 7.976a1 1 0 1 0 2 0H7Zm2 11.965a1 1 0 0 0-2 0h2Zm-2 7.977a1 1 0 0 0 2 0H7Zm2 11.964a1 1 0 0 0-2 0h2ZM7 543.4a1 1 0 0 0 2 0H7Zm2 11.965a1 1 0 1 0-2 0h2Zm-2 7.976a1 1 0 0 0 2 0H7Zm2 11.965a1 1 0 1 0-2 0h2Zm-2 7.976a1 1 0 0 0 2 0H7Zm2 11.965a1 1 0 0 0-2 0h2Zm-2 7.976a1 1 0 1 0 2 0H7Zm2 11.965a1 1 0 0 0-2 0h2Zm-2 7.976a1 1 0 1 0 2 0H7Zm2 11.965a1 1 0 0 0-2 0h2Zm-2 7.977a1 1 0 0 0 2 0H7Zm2 11.964a1 1 0 0 0-2 0h2Zm-2 7.977a1 1 0 0 0 2 0H7Zm2 11.964a1 1 0 0 0-2 0h2Zm-2 7.977a1 1 0 0 0 2 0H7Zm2 11.965a1 1 0 1 0-2 0h2Zm-2 7.976a1 1 0 0 0 2 0H7Zm2 11.965a1 1 0 0 0-2 0h2Zm-2 7.976a1 1 0 1 0 2 0H7Zm2 11.965a1 1 0 0 0-2 0h2Zm-2 7.976a1 1 0 1 0 2 0H7Zm2 11.965a1 1 0 0 0-2 0h2Zm-2 7.977a1 1 0 0 0 2 0H7Zm2 11.964a1 1 0 0 0-2 0h2Zm-2 7.977a1 1 0 0 0 2 0H7Zm2 11.964a1 1 0 0 0-2 0h2Zm-2 7.977a1 1 0 0 0 2 0H7ZM9 814.6a1 1 0 1 0-2 0h2Zm-2 7.976a1 1 0 0 0 2 0H7Zm2 11.965a1 1 0 1 0-2 0h2Zm-2 7.976a1 1 0 0 0 2 0H7Zm2 11.965a1 1 0 0 0-2 0h2Zm-2 7.976a1 1 0 1 0 2 0H7Zm2 11.965a1 1 0 0 0-2 0h2ZM7 882.4a1 1 0 0 0 2 0H7Zm2 11.964a1 1 0 0 0-2 0h2Zm-2 7.977a1 1 0 0 0 2 0H7Zm2 11.964a1 1 0 0 0-2 0h2Zm-2 7.977a1 1 0 0 0 2 0H7Zm2 11.965a1 1 0 1 0-2 0h2Zm-2 7.976a1 1 0 0 0 2 0H7Zm2 11.965a1 1 0 1 0-2 0h2Zm-2 7.976a1 1 0 0 0 2 0H7Zm2 11.965a1 1 0 0 0-2 0h2Zm-2 7.976a1 1 0 1 0 2 0H7Zm2 11.965a1 1 0 0 0-2 0h2Zm-2 7.98c0 .55.448 1 1 1s1-.45 1-1H7Zm2 11.96c0-.55-.448-1-1-1s-1 .45-1 1h2Zm-2 7.98c0 .55.448 1 1 1s1-.45 1-1H7Zm2 11.96c0-.55-.448-1-1-1s-1 .45-1 1h2Zm-2 7.98c0 .55.448 1 1 1s1-.45 1-1H7Zm2 11.96c0-.55-.448-1-1-1s-1 .45-1 1h2Zm-2 7.98c0 .55.448 1 1 1s1-.45 1-1H7Zm2 11.96c0-.55-.448-1-1-1s-1 .45-1 1h2Zm-2 7.98c0 .55.448 1 1 1s1-.45 1-1H7Zm2 11.97c0-.56-.448-1-1-1s-1 .44-1 1h2Zm-2 7.97c0 .55.448 1 1 1s1-.45 1-1H7Zm2 11.97c0-.56-.448-1-1-1s-1 .44-1 1h2Zm-2 7.97c0 .56.448 1 1 1s1-.44 1-1H7Zm2 11.97c0-.55-.448-1-1-1s-1 .45-1 1h2Zm-2 7.97c0 .56.448 1 1 1s1-.44 1-1H7Zm2 11.97c0-.55-.448-1-1-1s-1 .45-1 1h2Zm-2 7.98c0 .55.448 1 1 1s1-.45 1-1H7Zm2 11.96c0-.55-.448-1-1-1s-1 .45-1 1h2Zm-2 7.98c0 .55.448 1 1 1s1-.45 1-1H7Zm2 11.96c0-.55-.448-1-1-1s-1 .45-1 1h2Zm-2 7.98c0 .55.448 1 1 1s1-.45 1-1H7Zm2 11.96c0-.55-.448-1-1-1s-1 .45-1 1h2Zm-2 7.98c0 .55.448 1 1 1s1-.45 1-1H7Zm2 11.96c0-.55-.448-1-1-1s-1 .45-1 1h2Zm-2 7.98c0 .55.448 1 1 1s1-.45 1-1H7Zm2 11.97c0-.56-.448-1-1-1s-1 .44-1 1h2Zm-2 7.97c0 .55.448 1 1 1s1-.45 1-1H7Zm2 11.97c0-.56-.448-1-1-1s-1 .44-1 1h2Zm-2 7.97c0 .56.448 1 1 1s1-.44 1-1H7Zm2 11.97c0-.55-.448-1-1-1s-1 .45-1 1h2Zm-2 7.97c0 .56.448 1 1 1s1-.44 1-1H7Zm2 11.97c0-.55-.448-1-1-1s-1 .45-1 1h2Zm-2 7.98c0 .55.448 1 1 1s1-.45 1-1H7Zm2 11.96c0-.55-.448-1-1-1s-1 .45-1 1h2Zm-2 7.98c0 .55.448 1 1 1s1-.45 1-1H7Zm2 11.96c0-.55-.448-1-1-1s-1 .45-1 1h2ZM7 1v3.988h2V1H7Zm0 15.953v7.976h2v-7.976H7Zm0 19.941v7.977h2v-7.977H7Zm0 19.941v7.977h2v-7.977H7Zm0 19.941v7.977h2v-7.977H7Zm0 19.942v7.976h2v-7.976H7Zm0 19.941v7.976h2v-7.976H7ZM7 136.6v7.976h2V136.6H7Zm0 19.941v7.977h2v-7.977H7Zm0 19.941v7.977h2v-7.977H7Zm0 19.942v7.976h2v-7.976H7Zm0 19.941v7.976h2v-7.976H7Zm0 19.941v7.976h2v-7.976H7Zm0 19.941v7.977h2v-7.977H7Zm0 19.941v7.977h2v-7.977H7Zm0 19.941v7.977h2v-7.977H7Zm0 19.942v7.976h2v-7.976H7Zm0 19.941v7.976h2v-7.976H7Zm0 19.941v7.976h2v-7.976H7Zm0 19.941v7.976h2v-7.976H7Zm0 19.941v7.977h2v-7.977H7Zm0 19.941v7.977h2v-7.977H7Zm0 19.941v7.977h2v-7.977H7Zm0 19.942v7.976h2v-7.976H7ZM7 475.6v7.976h2V475.6H7Zm0 19.941v7.976h2v-7.976H7Zm0 19.941v7.977h2v-7.977H7Zm0 19.941v7.977h2v-7.977H7Zm0 19.942v7.976h2v-7.976H7Zm0 19.941v7.976h2v-7.976H7Zm0 19.941v7.976h2v-7.976H7Zm0 19.941v7.976h2v-7.976H7Zm0 19.941v7.977h2v-7.977H7Zm0 19.941v7.977h2v-7.977H7Zm0 19.941v7.977h2v-7.977H7Zm0 19.942v7.976h2v-7.976H7Zm0 19.941v7.976h2v-7.976H7Zm0 19.941v7.976h2v-7.976H7Zm0 19.941v7.977h2v-7.977H7Zm0 19.941v7.977h2v-7.977H7Zm0 19.941v7.977h2v-7.977H7ZM7 814.6v7.976h2V814.6H7Zm0 19.941v7.976h2v-7.976H7Zm0 19.941v7.976h2v-7.976H7Zm0 19.941v7.977h2v-7.977H7Zm0 19.941v7.977h2v-7.977H7Zm0 19.941v7.977h2v-7.977H7Zm0 19.942v7.976h2v-7.976H7Zm0 19.941v7.976h2v-7.976H7Zm0 19.941v7.976h2v-7.976H7Zm0 19.941v7.98h2v-7.98H7Zm0 19.94v7.98h2v-7.98H7Zm0 19.94v7.98h2v-7.98H7Zm0 19.94v7.98h2v-7.98H7Zm0 19.94v7.98h2v-7.98H7Zm0 19.95v7.97h2v-7.97H7Zm0 19.94v7.97h2v-7.97H7Zm0 19.94v7.97h2v-7.97H7Zm0 19.94v7.98h2v-7.98H7Zm0 19.94v7.98h2v-7.98H7Zm0 19.94v7.98h2v-7.98H7Zm0 19.94v7.98h2v-7.98H7Zm0 19.94v7.98h2v-7.98H7Zm0 19.95v7.97h2v-7.97H7Zm0 19.94v7.97h2v-7.97H7Zm0 19.94v7.97h2v-7.97H7Zm0 19.94v7.98h2v-7.98H7Zm0 19.94v7.98h2v-7.98H7Zm0 19.94v3.99h2v-3.99H7Z" fill="#000"/></svg>