<svg width="24" height="24" viewBox="0 0 24 24" fill="none" xmlns="http://www.w3.org/2000/svg">
<g clip-path="url(#clip0_8971_37536)">
<path d="M12 24C18.6274 24 24 18.6274 24 12C24 5.37258 18.6274 0 12 0C5.37258 0 0 5.37258 0 12C0 18.6274 5.37258 24 12 24Z" fill="#F4F4F4"/>
<path fill-rule="evenodd" clip-rule="evenodd" d="M4 11.0954L8.8028 6.31738H15.1973L20 11.0954L12 19.0542L4 11.0954ZM8.5793 9.42028C10.4685 7.52868 13.5315 7.52868 15.4207 9.42028L17.0527 11.0542L15.4207 12.6882C13.5315 14.5798 10.4685 14.5798 8.5793 12.6882L6.9474 11.0542L8.5793 9.42028ZM10 11.1068C10 12.1824 10.8954 13.0542 12 13.0542C13.1046 13.0542 14 12.1824 14 11.1068C14 10.0313 13.1046 9.15948 12 9.15948C10.8954 9.15948 10 10.0313 10 11.1068ZM11.1579 11.0542C11.1579 11.5195 11.5351 11.8963 12 11.8963C12.4649 11.8963 12.8421 11.5195 12.8421 11.0542C12.8421 10.5889 12.4649 10.2121 12 10.2121C11.5351 10.2121 11.1579 10.5889 11.1579 11.0542Z" fill="#D0D0D0"/>
</g>
<defs>
<clipPath id="clip0_8971_37536">
<rect width="24" height="24" fill="white"/>
</clipPath>
</defs>
</svg>
