<svg width="24" height="24" viewBox="0 0 24 24" fill="none" xmlns="http://www.w3.org/2000/svg">
<g clip-path="url(#clip0_8971_37539)">
<mask id="mask0_8971_37539" style="mask-type:luminance" maskUnits="userSpaceOnUse" x="0" y="0" width="24" height="24">
<path d="M24 0H0V24H24V0Z" fill="white"/>
</mask>
<g mask="url(#mask0_8971_37539)">
<path d="M12 24C18.6274 24 24 18.6274 24 12C24 5.37258 18.6274 0 12 0C5.37258 0 0 5.37258 0 12C0 18.6274 5.37258 24 12 24Z" fill="#F4F4F4"/>
<path d="M18.9252 6.69751C17.5888 5.39181 15.7609 4.58706 13.7448 4.58706C9.65077 4.58706 6.33183 7.90581 6.33183 12C6.33183 16.0942 9.65077 19.4131 13.7448 19.4131C15.7607 19.4131 17.5888 18.6081 18.9252 17.3025C17.3313 19.381 14.8224 20.7211 12.0007 20.7211C7.18399 20.7211 3.2793 16.8167 3.2793 12C3.2793 7.1833 7.18399 3.27881 12.0007 3.27881C14.8224 3.27881 17.3313 4.61894 18.9252 6.69751Z" fill="#D0D0D0"/>
<path d="M8.20508 16.2418C9.27427 17.2864 10.7366 17.9302 12.3494 17.9302C15.6249 17.9302 18.28 15.2753 18.28 11.9998C18.28 8.72459 15.6249 6.06951 12.3494 6.06951C10.7366 6.06951 9.27427 6.71331 8.20508 7.75791C9.48028 6.09509 11.4874 5.02295 13.7449 5.02295C17.5982 5.02295 20.7218 8.14651 20.7218 11.9998C20.7218 15.8532 17.5982 18.9767 13.7449 18.9767C11.4874 18.9767 9.48028 17.9046 8.20508 16.2418Z" fill="#D0D0D0"/>
<path fill-rule="evenodd" clip-rule="evenodd" d="M12.0002 6.76746C14.8902 6.76746 17.233 9.11027 17.233 12.0001C17.233 14.8901 14.8902 17.2329 12.0002 17.2329C9.11039 17.2329 6.76758 14.8901 6.76758 12.0001C6.76758 9.11027 9.11039 6.76746 12.0002 6.76746ZM12.0002 8.51173C13.9269 8.51173 15.4887 10.0736 15.4887 12.0001C15.4887 13.9268 13.9269 15.4886 12.0002 15.4886C10.0735 15.4886 8.51185 13.9268 8.51185 12.0001C8.51185 10.0736 10.0735 8.51173 12.0002 8.51173Z" fill="#D0D0D0"/>
</g>
</g>
<defs>
<clipPath id="clip0_8971_37539">
<rect width="24" height="24" fill="white"/>
</clipPath>
</defs>
</svg>
