<svg width="24" height="24" viewBox="0 0 24 24" fill="none" xmlns="http://www.w3.org/2000/svg">
<g clip-path="url(#clip0_8971_37453)">
<mask id="mask0_8971_37453" style="mask-type:luminance" maskUnits="userSpaceOnUse" x="0" y="0" width="24" height="24">
<path d="M24 0H0V24H24V0Z" fill="white"/>
</mask>
<g mask="url(#mask0_8971_37453)">
<path d="M12 24C18.6274 24 24 18.6274 24 12C24 5.37258 18.6274 0 12 0C5.37258 0 0 5.37258 0 12C0 18.6274 5.37258 24 12 24Z" fill="white"/>
<path d="M18.9252 6.69799C17.5888 5.3923 15.7609 4.58755 13.7448 4.58755C9.65077 4.58755 6.33183 7.90629 6.33183 12.0005C6.33183 16.0946 9.65077 19.4136 13.7448 19.4136C15.7608 19.4136 17.5888 18.6086 18.9252 17.3029C17.3313 19.3815 14.8224 20.7216 12.0007 20.7216C7.18399 20.7216 3.2793 16.8171 3.2793 12.0005C3.2793 7.18379 7.18399 3.2793 12.0007 3.2793C14.8224 3.2793 17.3313 4.61943 18.9252 6.69799Z" fill="url(#paint0_linear_8971_37453)"/>
<path d="M8.20508 16.2423C9.27427 17.2869 10.7366 17.9307 12.3494 17.9307C15.6249 17.9307 18.28 15.2758 18.28 12.0003C18.28 8.72507 15.6249 6.07 12.3494 6.07C10.7366 6.07 9.27427 6.7138 8.20508 7.7584C9.48028 6.09558 11.4874 5.02344 13.7449 5.02344C17.5982 5.02344 20.7218 8.14699 20.7218 12.0003C20.7218 15.8537 17.5982 18.9772 13.7449 18.9772C11.4874 18.9772 9.48028 17.9051 8.20508 16.2423Z" fill="url(#paint1_linear_8971_37453)"/>
<path fill-rule="evenodd" clip-rule="evenodd" d="M12.0002 6.76794C14.8902 6.76794 17.233 9.11076 17.233 12.0006C17.233 14.8906 14.8902 17.2334 12.0002 17.2334C9.1104 17.2334 6.76758 14.8906 6.76758 12.0006C6.76758 9.11076 9.1104 6.76794 12.0002 6.76794ZM12.0002 8.51222C13.9268 8.51222 15.4887 10.0741 15.4887 12.0006C15.4887 13.9272 13.9268 15.4891 12.0002 15.4891C10.0735 15.4891 8.51186 13.9272 8.51186 12.0006C8.51186 10.0741 10.0735 8.51222 12.0002 8.51222Z" fill="url(#paint2_linear_8971_37453)"/>
</g>
</g>
<defs>
<linearGradient id="paint0_linear_8971_37453" x1="18.9252" y1="12.0005" x2="2.5807" y2="12.0005" gradientUnits="userSpaceOnUse">
<stop stop-color="#5334C1"/>
<stop offset="1" stop-color="#0BDFF6"/>
</linearGradient>
<linearGradient id="paint1_linear_8971_37453" x1="20.7217" y1="12.0004" x2="7.6462" y2="12.0004" gradientUnits="userSpaceOnUse">
<stop stop-color="#5334C1"/>
<stop offset="1" stop-color="#0BDFF6"/>
</linearGradient>
<linearGradient id="paint2_linear_8971_37453" x1="21" y1="12.0005" x2="3.00001" y2="12.0005" gradientUnits="userSpaceOnUse">
<stop stop-color="#5334C1"/>
<stop offset="1" stop-color="#0BDFF6"/>
</linearGradient>
<clipPath id="clip0_8971_37453">
<rect width="24" height="24" fill="white"/>
</clipPath>
</defs>
</svg>
